<?xml version="1.0" encoding="UTF-8" standalone="no"?>
<svg
    height="56"
    id="svg6"
    width="46"
    xmlns="http://www.w3.org/2000/svg">
    <defs
        id="defs10"/>
    <title
        id="title2">ContactlessIndicator 000</title>
    <path
        d="m35,3a50,50 0 0,1 0,50M24,8.5a39,39 0 0,1 0,39M13.5,13.55a28.2,28.5 0 0,1 0,28.5M3,19a18,17 0 0,1 0,18"
        fill="none"
        id="path4"
        stroke="#000"
        stroke-linecap="round"
        stroke-width="6"/>
    <path
        d="m 151.25409,17.998894 -15.99587,15.995864 15.99587,15.995864 v 0 c 0.73345,0.733456 1.18193,1.742541 1.18193,2.854403 0,2.228395 -1.80794,4.04101 -4.04101,4.04101 -1.11653,0 -2.12561,-0.453154 -2.8544,-1.181937 v 0 L 129.54475,39.708235 113.54888,55.704098 v 0 c -0.72878,0.728783 -1.74254,1.181937 -2.8544,1.181937 -2.23307,0 -4.04101,-1.807941 -4.04101,-4.04101 0,-1.116533 0.45315,-2.125617 1.18194,-2.854403 v 0 L 123.83127,33.994758 107.83541,17.998894 v 0 c -0.72879,-0.728783 -1.18194,-1.742541 -1.18194,-2.854403 0,-2.233066 1.80794,-4.041011 4.04101,-4.041011 1.11653,0 2.12562,0.453155 2.8544,1.181937 v 0 l 15.99587,15.995866 15.99586,-15.995866 v 0 c 0.72879,-0.728782 1.74254,-1.181937 2.8544,-1.181937 2.23307,0 4.04101,1.807945 4.04101,4.041011 0,1.111862 -0.45315,2.12562 -1.18193,2.854403 z"
        id="path69"
        style="stroke-width:0.046717;"/>
    <path
        d="M 2.5879989,48.76712 43.493707,7.9214816"
        id="path4339"
        style="fill:none;stroke:#000000;stroke-width:5.02909;stroke-linecap:round;stroke-linejoin:miter;stroke-miterlimit:4;stroke-dasharray:none;stroke-opacity:1;"/>
    <path
        d="M 43.47967,48.843567 2.5704933,7.8622572"
        id="path4339-8"
        style="fill:none;stroke:#000000;stroke-width:5.02909;stroke-linecap:round;stroke-linejoin:miter;stroke-miterlimit:4;stroke-dasharray:none;stroke-opacity:1;"/>
    <metadata
        id="metadata6232">
    </metadata>
</svg>
